<?xml version="1.0" encoding="UTF-8"?>
<svg version="1.1" xmlns="http://www.w3.org/2000/svg" width="626" height="470">
<path d="M0 0 C0.66 0 1.32 0 2 0 C9.62791005 15.55177974 17.13925499 31.14168241 24.25 46.9375 C29.89264802 59.46845039 35.70856614 71.9084903 41.625 84.3125 C48.64773361 99.03823747 55.58329565 113.79825925 62.42871094 128.60742188 C65.25179524 134.70275742 68.09508534 140.78866258 70.9375 146.875 C71.52515644 148.13362166 72.11280293 149.39224796 72.70043945 150.65087891 C73.87814356 153.17322924 75.05597948 155.69551797 76.23388672 158.21777344 C77.99117103 161.98083466 79.74765032 165.74427123 81.50390625 169.5078125 C81.7928627 170.1269754 82.08181915 170.74613831 82.37953186 171.38406372 C83.82944693 174.49099931 85.27896878 177.5981174 86.7277832 180.70556641 C89.43884929 186.51924763 92.15358404 192.33112959 94.88116455 198.13708496 C96.15722763 200.85390585 97.43122679 203.57169229 98.70507812 206.28955078 C99.30789321 207.57421244 99.9116985 208.85841002 100.51660156 210.14208984 C101.36000095 211.93205528 102.19958545 213.72381667 103.0390625 215.515625 C103.75376709 217.03591309 103.75376709 217.03591309 104.48291016 218.58691406 C106.44655148 223.00463305 108.20452184 227.51130459 110 232 C93.5 232 77 232 60 232 C55.56097911 223.12195821 51.25680341 214.31162144 47.25 205.25 C46.12153589 202.71276364 44.99044309 200.17670142 43.859375 197.640625 C43.55870117 196.9657605 43.25802734 196.290896 42.94824219 195.59558105 C39.24508065 187.29176895 35.48921701 179.01180281 31.73693848 170.73010254 C25.46058126 156.87727227 19.20310721 143.01659615 12.99438477 129.13330078 C9.40867583 121.12309422 5.80150415 113.12284693 2.17489624 105.131073 C0.10194197 100.56157651 -1.96093381 95.98810395 -4.00097656 91.40380859 C-7.53334289 83.4880923 -11.09524804 75.65335784 -15.19921875 68.015625 C-24.05659032 51.27956796 -24.05659032 51.27956796 -22.17578125 43.90234375 C-20.5184588 39.56724196 -18.17269437 35.75403899 -15.68798828 31.84960938 C-12.6398238 26.7037928 -10.31155676 21.1951254 -7.86911011 15.74337769 C-6.47978109 12.65674416 -5.05418569 9.58793247 -3.625 6.51953125 C-3.14289063 5.47901611 -2.66078125 4.43850098 -2.1640625 3.36645508 C-1 1 -1 1 0 0 Z " fill="#FEFDFD" transform="translate(312,119)"/>
<path d="M0 0 C4.30922324 9.14497536 8.5303222 18.32538042 12.63989258 27.56201172 C14.41659864 31.54247617 16.2223508 35.49543681 18.1640625 39.3984375 C18.49599609 40.07390625 18.82792969 40.749375 19.16992188 41.4453125 C20.06222787 43.24817206 20.9718819 45.04241637 21.8828125 46.8359375 C23.46850867 51.32689518 22.76451352 54.18676718 20.94921875 58.4921875 C20.53285156 59.27851563 20.11648438 60.06484375 19.6875 60.875 C19.24019531 61.73609375 18.79289062 62.5971875 18.33203125 63.484375 C17.89246094 64.31453125 17.45289063 65.1446875 17 66 C14.60762197 70.60008127 12.45957408 75.15707242 10.7109375 80.04296875 C9.86113938 82.38224818 8.92433649 84.68915878 8 87 C18.56 87 29.12 87 40 87 C41.588125 90.3 43.17625 93.6 44.8125 97 C45.3072583 98.02351563 45.8020166 99.04703125 46.31176758 100.1015625 C48.81537257 105.33246227 51.01550242 110.55293691 53 116 C54.07359888 118.35982611 55.19028037 120.69024786 56.328125 123.01953125 C57 125 57 125 56 128 C33.56 128 11.12 128 -12 128 C-12.66 129.98 -13.32 131.96 -14 134 C-14.75847254 135.59949991 -15.54987638 137.18384178 -16.375 138.75 C-18.53980822 142.97137604 -20.3483443 147.23339957 -22.0078125 151.67578125 C-22.49894531 152.82626953 -22.49894531 152.82626953 -23 154 C-23.28834717 154.86286621 -23.57669434 155.72573242 -23.8737793 156.61474609 C-26 159 -26 159 -28.16638184 159.43785095 C-31.12677077 159.5816207 -34.0486322 159.56067016 -37.01171875 159.48828125 C-38.09508011 159.48120651 -39.17844147 159.47413177 -40.29463196 159.46684265 C-43.75961962 159.43882254 -47.22299963 159.37606661 -50.6875 159.3125 C-53.0344819 159.28742714 -55.38148908 159.26461221 -57.72851562 159.24414062 C-63.4862269 159.18897099 -69.24299862 159.10526821 -75 159 C-74.29542929 154.18150988 -73.03421879 150.69515293 -70.75 146.375 C-67.901941 140.89621847 -65.40591421 135.37205686 -63.140625 129.62109375 C-61.96460173 126.91865672 -60.51997414 124.52103238 -59 122 C-58.46082659 120.68202056 -57.95682942 119.34873447 -57.5 118 C-56.3254129 114.72094436 -54.79408274 111.99013791 -53 109 C-52.47863876 107.6748735 -51.98021055 106.34058778 -51.5 105 C-50.6596572 102.65749001 -49.85915298 100.76729622 -48.5625 98.625 C-46.68549374 95.47162949 -45.45197434 92.22104013 -44.16015625 88.79296875 C-42.92299124 85.81460855 -41.51201101 82.97033247 -40.05493164 80.0949707 C-38.37429311 76.75741938 -36.7789517 73.38078549 -35.1875 70 C-34.84420654 69.27159912 -34.50091309 68.54319824 -34.1472168 67.79272461 C-31.78523478 62.7508955 -29.52203821 57.6727434 -27.3125 52.5625 C-25.14422129 47.54948292 -22.8750103 42.6223297 -20.3828125 37.76171875 C-18.14692121 33.29625225 -16.0513763 28.76468657 -13.94165039 24.23852539 C-12.29919026 20.72412869 -10.62093114 17.2396208 -8.85546875 13.78515625 C-7.05220746 10.20590915 -5.83149418 6.62800653 -4.7109375 2.78515625 C-3.70248456 0.25294199 -2.6553081 0 0 0 Z " fill="#01ADEF" transform="translate(280,192)"/>
<path d="M0 0 C0 0.99 0 1.98 0 3 C-22.44 3 -44.88 3 -68 3 C-68.33 3.99 -68.66 4.98 -69 6 C-69.66 4.68 -70.32 3.36 -71 2 C-67.44393897 0.90853335 -64.1032309 0.84346356 -60.39550781 0.79467773 C-59.74143448 0.78477814 -59.08736115 0.77487854 -58.41346741 0.76467896 C-56.26005626 0.73319149 -54.10662308 0.70835728 -51.953125 0.68359375 C-50.45667968 0.66301319 -48.96024004 0.64201643 -47.46380615 0.62062073 C-43.53147991 0.56551382 -39.59910219 0.51605453 -35.66668701 0.46777344 C-31.65144284 0.41747514 -27.63627311 0.36183261 -23.62109375 0.30664062 C-15.74745884 0.19919832 -7.87376151 0.09772264 0 0 Z " fill="#1CBBF1" transform="translate(336,317)"/>
<path d="M0 0 C5.46900689 11.60625257 10.75917724 23.28911404 16 35 C15.34 35.66 14.68 36.32 14 37 C14 36.34 14 35.68 14 35 C13.34 35 12.68 35 12 35 C11.71125 33.88625 11.4225 32.7725 11.125 31.625 C10.30758671 27.99708908 10.30758671 27.99708908 8 26 C7.875 23.375 7.875 23.375 8 21 C7.01 20.67 6.02 20.34 5 20 C5.33 19.67 5.66 19.34 6 19 C5.34 18.67 4.68 18.34 4 18 C4 16.02 4 14.04 4 12 C3.34 12 2.68 12 2 12 C1.67 10.35 1.34 8.7 1 7 C-0.65 7 -2.3 7 -4 7 C-4 8.65 -4 10.3 -4 12 C-4.66 12 -5.32 12 -6 12 C-6.12375 12.78375 -6.2475 13.5675 -6.375 14.375 C-7 17 -7 17 -9 19 C-8.51969656 12.51590363 -7.00031684 6.80816053 -4 1 C-2 0 -2 0 0 0 Z " fill="#14AEE8" transform="translate(280,192)"/>
<path d="M0 0 C1.32 0 2.64 0 4 0 C4.33 1.98 4.66 3.96 5 6 C4.01 6 3.02 6 2 6 C1.34 7.32 0.68 8.64 0 10 C-0.99 8.68 -1.98 7.36 -3 6 C-2.01 4.02 -1.02 2.04 0 0 Z " fill="#0BB2F3" transform="translate(219,318)"/>
<path d="M0 0 C1.74565111 3.21639654 2.204437 5.32013404 2 9 C1.360625 9.28875 0.72125 9.5775 0.0625 9.875 C-2.15206079 10.82823451 -2.15206079 10.82823451 -3 13 C-3.66 13 -4.32 13 -5 13 C-4.32116957 9.88452559 -3.25893098 7.14862279 -1.9375 4.25 C-1.57527344 3.45078125 -1.21304688 2.6515625 -0.83984375 1.828125 C-0.56269531 1.22484375 -0.28554687 0.6215625 0 0 Z " fill="#11B0EE" transform="translate(251,249)"/>
<path d="M0 0 C2 1 2 1 3.125 3.375 C4 6 4 6 4 9 C1.69 8.67 -0.62 8.34 -3 8 C-3 6.68 -3 5.36 -3 4 C-2.01 4 -1.02 4 0 4 C0 2.68 0 1.36 0 0 Z " fill="#0CAFEA" transform="translate(332,308)"/>
<path d="M0 0 C0.33 0 0.66 0 1 0 C1.1875 2.8125 1.1875 2.8125 1 6 C-0.3125 7.4375 -0.3125 7.4375 -2 9 C-3.14461522 11.28923044 -4.05566905 13.61668857 -5 16 C-5.66 16 -6.32 16 -7 16 C-5.35433477 10.31497465 -2.70967216 5.23318364 0 0 Z " fill="#18B8ED" transform="translate(241,270)"/>
<path d="M0 0 C2.64 0 5.28 0 8 0 C6.70700306 2.88437779 5.34058637 4.87219421 3 7 C2.01 6.34 1.02 5.68 0 5 C-0.1875 2.375 -0.1875 2.375 0 0 Z " fill="#0BB0F5" transform="translate(282,272)"/>
<path d="M0 0 C2.00130916 2.54712074 3.85727656 4.9527375 5 8 C4.625 10.25 4.625 10.25 4 12 C2.02 8.535 2.02 8.535 0 5 C-0.66 5.66 -1.32 6.32 -2 7 C-2.33 5.02 -2.66 3.04 -3 1 C-2.01 0.67 -1.02 0.34 0 0 Z " fill="#0FA6E7" transform="translate(325,292)"/>
<path d="M0 0 C1 3 1 3 0.22265625 5.04296875 C-0.16019531 5.75066406 -0.54304688 6.45835937 -0.9375 7.1875 C-1.31777344 7.90292969 -1.69804687 8.61835938 -2.08984375 9.35546875 C-2.54037109 10.16951172 -2.54037109 10.16951172 -3 11 C-3.99 10.67 -4.98 10.34 -6 10 C-5.34 9.67 -4.68 9.34 -4 9 C-4.33 7.68 -4.66 6.36 -5 5 C-4.01 5 -3.02 5 -2 5 C-2 4.01 -2 3.02 -2 2 C-1.34 2 -0.68 2 0 2 C0 1.34 0 0.68 0 0 Z " fill="#11ADEB" transform="translate(302,242)"/>
<path d="M0 0 C2.86453858 3.41016497 4.34703566 6.90694544 6 11 C5.01 11.33 4.02 11.66 3 12 C3 10.68 3 9.36 3 8 C2.34 8 1.68 8 1 8 C0.67 5.36 0.34 2.72 0 0 Z " fill="#14A2D8" transform="translate(281,196)"/>
<path d="M0 0 C3 1 3 1 5 4 C4.625 6.6875 4.625 6.6875 4 9 C3.34 8.67 2.68 8.34 2 8 C2 6.68 2 5.36 2 4 C1.34 3.67 0.68 3.34 0 3 C0 2.01 0 1.02 0 0 Z " fill="#09B4F4" transform="translate(267,215)"/>
<path d="M0 0 C0.99 0 1.98 0 3 0 C3 0.66 3 1.32 3 2 C2.34 2 1.68 2 1 2 C0.87625 2.78375 0.7525 3.5675 0.625 4.375 C0 7 0 7 -2 9 C-1.125 1.125 -1.125 1.125 0 0 Z " fill="#0FB2EB" transform="translate(273,202)"/>
<path d="M0 0 C1.4606285 2.64738916 2 3.89448334 2 7 C0.68 7.33 -0.64 7.66 -2 8 C-1.125 1.125 -1.125 1.125 0 0 Z " fill="#11B5F3" transform="translate(245,262)"/>
<path d="M0 0 C0.33 0.66 0.66 1.32 1 2 C2.65 2 4.3 2 6 2 C6 2.99 6 3.98 6 5 C3.69 4.67 1.38 4.34 -1 4 C-0.67 2.68 -0.34 1.36 0 0 Z " fill="#09B4F7" transform="translate(249,344)"/>
</svg>
